<mxfile host="Electron" modified="2024-07-22T15:50:49.202Z" agent="Mozilla/5.0 (Windows NT 10.0; Win64; x64) AppleWebKit/537.36 (KHTML, like Gecko) draw.io/24.6.4 Chrome/124.0.6367.207 Electron/30.0.6 Safari/537.36" etag="46f3s2scXirEw10JjiUC" version="24.6.4" type="device">
  <diagram id="R2lEEEUBdFMjLlhIrx00" name="Page-1">
    <mxGraphModel dx="1134" dy="799" grid="1" gridSize="10" guides="1" tooltips="1" connect="1" arrows="1" fold="1" page="1" pageScale="1" pageWidth="850" pageHeight="1100" background="none" math="0" shadow="0" extFonts="Permanent Marker^https://fonts.googleapis.com/css?family=Permanent+Marker">
      <root>
        <mxCell id="0" />
        <mxCell id="1" parent="0" />
        <mxCell id="uHuHp3nA_jXWI_jN8eQP-3" style="edgeStyle=orthogonalEdgeStyle;rounded=1;orthogonalLoop=1;jettySize=auto;html=1;exitX=1;exitY=0.5;exitDx=0;exitDy=0;entryX=0;entryY=0.5;entryDx=0;entryDy=0;strokeColor=default;endArrow=none;endFill=0;" edge="1" parent="1" source="uHuHp3nA_jXWI_jN8eQP-1" target="uHuHp3nA_jXWI_jN8eQP-2">
          <mxGeometry relative="1" as="geometry" />
        </mxCell>
        <mxCell id="uHuHp3nA_jXWI_jN8eQP-20" style="edgeStyle=orthogonalEdgeStyle;rounded=1;orthogonalLoop=1;jettySize=auto;html=1;exitX=0;exitY=0.5;exitDx=0;exitDy=0;entryX=1;entryY=0.5;entryDx=0;entryDy=0;endArrow=ERmany;endFill=0;" edge="1" parent="1" source="uHuHp3nA_jXWI_jN8eQP-1" target="uHuHp3nA_jXWI_jN8eQP-58">
          <mxGeometry relative="1" as="geometry">
            <mxPoint x="320.0000000000002" y="420" as="targetPoint" />
          </mxGeometry>
        </mxCell>
        <mxCell id="uHuHp3nA_jXWI_jN8eQP-41" style="edgeStyle=orthogonalEdgeStyle;rounded=1;orthogonalLoop=1;jettySize=auto;html=1;exitX=0.5;exitY=0;exitDx=0;exitDy=0;entryX=0.5;entryY=1;entryDx=0;entryDy=0;endArrow=none;endFill=0;" edge="1" parent="1" source="uHuHp3nA_jXWI_jN8eQP-1" target="uHuHp3nA_jXWI_jN8eQP-38">
          <mxGeometry relative="1" as="geometry" />
        </mxCell>
        <mxCell id="uHuHp3nA_jXWI_jN8eQP-1" value="AUTO" style="whiteSpace=wrap;html=1;align=center;rounded=1;" vertex="1" parent="1">
          <mxGeometry x="360" y="400" width="100" height="40" as="geometry" />
        </mxCell>
        <mxCell id="uHuHp3nA_jXWI_jN8eQP-39" style="edgeStyle=orthogonalEdgeStyle;rounded=1;orthogonalLoop=1;jettySize=auto;html=1;exitX=0.5;exitY=0;exitDx=0;exitDy=0;entryX=0.5;entryY=1;entryDx=0;entryDy=0;endArrow=none;endFill=0;" edge="1" parent="1" source="uHuHp3nA_jXWI_jN8eQP-2" target="uHuHp3nA_jXWI_jN8eQP-38">
          <mxGeometry relative="1" as="geometry" />
        </mxCell>
        <mxCell id="uHuHp3nA_jXWI_jN8eQP-2" value="PROPIETARIO" style="whiteSpace=wrap;html=1;align=center;rounded=1;" vertex="1" parent="1">
          <mxGeometry x="490" y="400" width="100" height="40" as="geometry" />
        </mxCell>
        <mxCell id="uHuHp3nA_jXWI_jN8eQP-9" value="" style="edgeStyle=orthogonalEdgeStyle;rounded=1;orthogonalLoop=1;jettySize=auto;html=1;entryX=0.5;entryY=1;entryDx=0;entryDy=0;endArrow=none;endFill=0;exitX=1;exitY=0.5;exitDx=0;exitDy=0;" edge="1" parent="1" source="uHuHp3nA_jXWI_jN8eQP-57" target="uHuHp3nA_jXWI_jN8eQP-1">
          <mxGeometry relative="1" as="geometry">
            <mxPoint x="320.0000000000002" y="500" as="sourcePoint" />
            <mxPoint x="410" y="500" as="targetPoint" />
          </mxGeometry>
        </mxCell>
        <mxCell id="uHuHp3nA_jXWI_jN8eQP-11" style="edgeStyle=orthogonalEdgeStyle;rounded=1;orthogonalLoop=1;jettySize=auto;html=1;entryX=0.5;entryY=1;entryDx=0;entryDy=0;endArrow=none;endFill=0;" edge="1" parent="1" source="uHuHp3nA_jXWI_jN8eQP-10" target="uHuHp3nA_jXWI_jN8eQP-1">
          <mxGeometry relative="1" as="geometry" />
        </mxCell>
        <mxCell id="uHuHp3nA_jXWI_jN8eQP-10" value="MATRÍCULA" style="ellipse;whiteSpace=wrap;html=1;align=center;fontStyle=4;rounded=1;" vertex="1" parent="1">
          <mxGeometry x="220" y="530" width="100" height="40" as="geometry" />
        </mxCell>
        <mxCell id="uHuHp3nA_jXWI_jN8eQP-25" style="edgeStyle=orthogonalEdgeStyle;rounded=1;orthogonalLoop=1;jettySize=auto;html=1;exitX=1;exitY=0.5;exitDx=0;exitDy=0;endArrow=none;endFill=0;" edge="1" parent="1" source="uHuHp3nA_jXWI_jN8eQP-12">
          <mxGeometry relative="1" as="geometry">
            <mxPoint x="410" y="440" as="targetPoint" />
          </mxGeometry>
        </mxCell>
        <mxCell id="uHuHp3nA_jXWI_jN8eQP-12" value="PRECIO" style="ellipse;whiteSpace=wrap;html=1;align=center;rounded=1;" vertex="1" parent="1">
          <mxGeometry x="220" y="580" width="100" height="40" as="geometry" />
        </mxCell>
        <mxCell id="uHuHp3nA_jXWI_jN8eQP-16" style="edgeStyle=orthogonalEdgeStyle;rounded=1;orthogonalLoop=1;jettySize=auto;html=1;exitX=1;exitY=0.5;exitDx=0;exitDy=0;entryX=0;entryY=0.5;entryDx=0;entryDy=0;endArrow=none;endFill=0;" edge="1" parent="1" source="uHuHp3nA_jXWI_jN8eQP-13" target="uHuHp3nA_jXWI_jN8eQP-58">
          <mxGeometry relative="1" as="geometry">
            <mxPoint x="220" y="420" as="targetPoint" />
          </mxGeometry>
        </mxCell>
        <mxCell id="uHuHp3nA_jXWI_jN8eQP-13" value="MODELO" style="ellipse;whiteSpace=wrap;html=1;align=center;rounded=1;" vertex="1" parent="1">
          <mxGeometry x="70" y="400" width="100" height="40" as="geometry" />
        </mxCell>
        <mxCell id="uHuHp3nA_jXWI_jN8eQP-18" style="edgeStyle=orthogonalEdgeStyle;rounded=1;orthogonalLoop=1;jettySize=auto;html=1;exitX=1;exitY=0.5;exitDx=0;exitDy=0;entryX=0;entryY=0.5;entryDx=0;entryDy=0;endArrow=none;endFill=0;" edge="1" parent="1" source="uHuHp3nA_jXWI_jN8eQP-17" target="uHuHp3nA_jXWI_jN8eQP-58">
          <mxGeometry relative="1" as="geometry">
            <mxPoint x="220" y="420" as="targetPoint" />
          </mxGeometry>
        </mxCell>
        <mxCell id="uHuHp3nA_jXWI_jN8eQP-17" value="AÑO" style="ellipse;whiteSpace=wrap;html=1;align=center;rounded=1;" vertex="1" parent="1">
          <mxGeometry x="70" y="450" width="100" height="40" as="geometry" />
        </mxCell>
        <mxCell id="uHuHp3nA_jXWI_jN8eQP-22" style="edgeStyle=orthogonalEdgeStyle;rounded=1;orthogonalLoop=1;jettySize=auto;html=1;exitX=1;exitY=0.5;exitDx=0;exitDy=0;entryX=0;entryY=0.5;entryDx=0;entryDy=0;endArrow=none;endFill=0;" edge="1" parent="1" source="uHuHp3nA_jXWI_jN8eQP-21" target="uHuHp3nA_jXWI_jN8eQP-58">
          <mxGeometry relative="1" as="geometry">
            <mxPoint x="220" y="420" as="targetPoint" />
          </mxGeometry>
        </mxCell>
        <mxCell id="uHuHp3nA_jXWI_jN8eQP-21" value="ID MARCA" style="ellipse;whiteSpace=wrap;html=1;align=center;fontStyle=4;rounded=1;" vertex="1" parent="1">
          <mxGeometry x="70" y="500" width="100" height="40" as="geometry" />
        </mxCell>
        <mxCell id="uHuHp3nA_jXWI_jN8eQP-23" value="ID AUTO" style="ellipse;whiteSpace=wrap;html=1;align=center;fontStyle=4;rounded=1;" vertex="1" parent="1">
          <mxGeometry x="220" y="630" width="100" height="40" as="geometry" />
        </mxCell>
        <mxCell id="uHuHp3nA_jXWI_jN8eQP-24" value="" style="endArrow=none;html=1;rounded=1;exitX=1;exitY=0.5;exitDx=0;exitDy=0;entryX=0.5;entryY=1;entryDx=0;entryDy=0;" edge="1" parent="1" source="uHuHp3nA_jXWI_jN8eQP-23" target="uHuHp3nA_jXWI_jN8eQP-1">
          <mxGeometry relative="1" as="geometry">
            <mxPoint x="250" y="520" as="sourcePoint" />
            <mxPoint x="410" y="520" as="targetPoint" />
            <Array as="points">
              <mxPoint x="410" y="650" />
            </Array>
          </mxGeometry>
        </mxCell>
        <mxCell id="uHuHp3nA_jXWI_jN8eQP-73" style="edgeStyle=orthogonalEdgeStyle;rounded=1;orthogonalLoop=1;jettySize=auto;html=1;exitX=0;exitY=0.5;exitDx=0;exitDy=0;entryX=1;entryY=0.5;entryDx=0;entryDy=0;endArrow=none;endFill=0;" edge="1" parent="1" source="uHuHp3nA_jXWI_jN8eQP-26" target="uHuHp3nA_jXWI_jN8eQP-2">
          <mxGeometry relative="1" as="geometry" />
        </mxCell>
        <mxCell id="uHuHp3nA_jXWI_jN8eQP-26" value="NOMBRE" style="ellipse;whiteSpace=wrap;html=1;align=center;rounded=1;" vertex="1" parent="1">
          <mxGeometry x="660" y="320" width="100" height="40" as="geometry" />
        </mxCell>
        <mxCell id="uHuHp3nA_jXWI_jN8eQP-76" style="edgeStyle=orthogonalEdgeStyle;rounded=1;orthogonalLoop=1;jettySize=auto;html=1;exitX=0;exitY=0.5;exitDx=0;exitDy=0;entryX=1;entryY=0.5;entryDx=0;entryDy=0;endArrow=none;endFill=0;" edge="1" parent="1" source="uHuHp3nA_jXWI_jN8eQP-27" target="uHuHp3nA_jXWI_jN8eQP-2">
          <mxGeometry relative="1" as="geometry" />
        </mxCell>
        <mxCell id="uHuHp3nA_jXWI_jN8eQP-27" value="DIRECCIÓN" style="ellipse;whiteSpace=wrap;html=1;align=center;rounded=1;" vertex="1" parent="1">
          <mxGeometry x="660" y="420" width="100" height="40" as="geometry" />
        </mxCell>
        <mxCell id="uHuHp3nA_jXWI_jN8eQP-78" style="edgeStyle=orthogonalEdgeStyle;rounded=1;orthogonalLoop=1;jettySize=auto;html=1;exitX=0;exitY=0.5;exitDx=0;exitDy=0;entryX=1;entryY=0.5;entryDx=0;entryDy=0;endArrow=none;endFill=0;" edge="1" parent="1" source="uHuHp3nA_jXWI_jN8eQP-28" target="uHuHp3nA_jXWI_jN8eQP-2">
          <mxGeometry relative="1" as="geometry" />
        </mxCell>
        <mxCell id="uHuHp3nA_jXWI_jN8eQP-28" value="ID CLIENTE" style="ellipse;whiteSpace=wrap;html=1;align=center;fontStyle=4;rounded=1;" vertex="1" parent="1">
          <mxGeometry x="660" y="470" width="100" height="40" as="geometry" />
        </mxCell>
        <mxCell id="uHuHp3nA_jXWI_jN8eQP-79" style="edgeStyle=orthogonalEdgeStyle;rounded=1;orthogonalLoop=1;jettySize=auto;html=1;exitX=0;exitY=0.5;exitDx=0;exitDy=0;entryX=1;entryY=0.5;entryDx=0;entryDy=0;endArrow=none;endFill=0;" edge="1" parent="1" source="uHuHp3nA_jXWI_jN8eQP-29" target="uHuHp3nA_jXWI_jN8eQP-2">
          <mxGeometry relative="1" as="geometry" />
        </mxCell>
        <mxCell id="uHuHp3nA_jXWI_jN8eQP-29" value="TELÉFONO" style="ellipse;whiteSpace=wrap;html=1;align=center;fontStyle=4;rounded=1;" vertex="1" parent="1">
          <mxGeometry x="660" y="520" width="100" height="40" as="geometry" />
        </mxCell>
        <mxCell id="uHuHp3nA_jXWI_jN8eQP-75" style="edgeStyle=orthogonalEdgeStyle;rounded=1;orthogonalLoop=1;jettySize=auto;html=1;exitX=0;exitY=0.5;exitDx=0;exitDy=0;entryX=1;entryY=0.5;entryDx=0;entryDy=0;endArrow=none;endFill=0;" edge="1" parent="1" source="uHuHp3nA_jXWI_jN8eQP-30" target="uHuHp3nA_jXWI_jN8eQP-2">
          <mxGeometry relative="1" as="geometry" />
        </mxCell>
        <mxCell id="uHuHp3nA_jXWI_jN8eQP-30" value="APELLIDO" style="ellipse;whiteSpace=wrap;html=1;align=center;rounded=1;" vertex="1" parent="1">
          <mxGeometry x="660" y="370" width="100" height="40" as="geometry" />
        </mxCell>
        <mxCell id="uHuHp3nA_jXWI_jN8eQP-59" style="edgeStyle=orthogonalEdgeStyle;rounded=1;orthogonalLoop=1;jettySize=auto;html=1;exitX=1;exitY=0.5;exitDx=0;exitDy=0;entryX=0;entryY=0.5;entryDx=0;entryDy=0;endArrow=none;endFill=0;" edge="1" parent="1" source="uHuHp3nA_jXWI_jN8eQP-32" target="uHuHp3nA_jXWI_jN8eQP-58">
          <mxGeometry relative="1" as="geometry" />
        </mxCell>
        <mxCell id="uHuHp3nA_jXWI_jN8eQP-32" value="NOMBRE MARCA" style="ellipse;whiteSpace=wrap;html=1;align=center;fontSize=9;rounded=1;" vertex="1" parent="1">
          <mxGeometry x="70" y="550" width="100" height="40" as="geometry" />
        </mxCell>
        <mxCell id="uHuHp3nA_jXWI_jN8eQP-49" style="edgeStyle=orthogonalEdgeStyle;rounded=1;orthogonalLoop=1;jettySize=auto;html=1;exitX=0.5;exitY=0;exitDx=0;exitDy=0;entryX=0.5;entryY=1;entryDx=0;entryDy=0;endArrow=none;endFill=0;" edge="1" parent="1" source="uHuHp3nA_jXWI_jN8eQP-38" target="uHuHp3nA_jXWI_jN8eQP-45">
          <mxGeometry relative="1" as="geometry" />
        </mxCell>
        <mxCell id="uHuHp3nA_jXWI_jN8eQP-50" style="edgeStyle=orthogonalEdgeStyle;rounded=1;orthogonalLoop=1;jettySize=auto;html=1;exitX=0.5;exitY=0;exitDx=0;exitDy=0;entryX=0.5;entryY=1;entryDx=0;entryDy=0;endArrow=none;endFill=0;" edge="1" parent="1" source="uHuHp3nA_jXWI_jN8eQP-38" target="uHuHp3nA_jXWI_jN8eQP-46">
          <mxGeometry relative="1" as="geometry" />
        </mxCell>
        <mxCell id="uHuHp3nA_jXWI_jN8eQP-51" style="edgeStyle=orthogonalEdgeStyle;rounded=1;orthogonalLoop=1;jettySize=auto;html=1;exitX=0.5;exitY=0;exitDx=0;exitDy=0;entryX=0.5;entryY=1;entryDx=0;entryDy=0;endArrow=none;endFill=0;" edge="1" parent="1" source="uHuHp3nA_jXWI_jN8eQP-38" target="uHuHp3nA_jXWI_jN8eQP-43">
          <mxGeometry relative="1" as="geometry" />
        </mxCell>
        <mxCell id="uHuHp3nA_jXWI_jN8eQP-52" style="edgeStyle=orthogonalEdgeStyle;rounded=1;orthogonalLoop=1;jettySize=auto;html=1;exitX=0.5;exitY=0;exitDx=0;exitDy=0;entryX=0.5;entryY=1;entryDx=0;entryDy=0;endArrow=none;endFill=0;" edge="1" parent="1" source="uHuHp3nA_jXWI_jN8eQP-38" target="uHuHp3nA_jXWI_jN8eQP-44">
          <mxGeometry relative="1" as="geometry" />
        </mxCell>
        <mxCell id="uHuHp3nA_jXWI_jN8eQP-38" value="SEGURO" style="whiteSpace=wrap;html=1;align=center;rounded=1;" vertex="1" parent="1">
          <mxGeometry x="383" y="320" width="100" height="40" as="geometry" />
        </mxCell>
        <mxCell id="uHuHp3nA_jXWI_jN8eQP-43" value="COMPAÑÍA" style="ellipse;whiteSpace=wrap;html=1;align=center;rounded=1;" vertex="1" parent="1">
          <mxGeometry x="440" y="240" width="100" height="40" as="geometry" />
        </mxCell>
        <mxCell id="uHuHp3nA_jXWI_jN8eQP-44" value="FECHA" style="ellipse;shape=doubleEllipse;margin=3;whiteSpace=wrap;html=1;align=center;rounded=1;" vertex="1" parent="1">
          <mxGeometry x="550" y="240" width="100" height="40" as="geometry" />
        </mxCell>
        <mxCell id="uHuHp3nA_jXWI_jN8eQP-45" value="NÚMERO DE POLIZA" style="ellipse;whiteSpace=wrap;html=1;align=center;fontStyle=4;fontSize=10;rounded=1;" vertex="1" parent="1">
          <mxGeometry x="220" y="240" width="100" height="40" as="geometry" />
        </mxCell>
        <mxCell id="uHuHp3nA_jXWI_jN8eQP-46" value="ID SEGURO" style="ellipse;whiteSpace=wrap;html=1;align=center;fontStyle=4;rounded=1;" vertex="1" parent="1">
          <mxGeometry x="330" y="240" width="100" height="40" as="geometry" />
        </mxCell>
        <mxCell id="uHuHp3nA_jXWI_jN8eQP-60" style="edgeStyle=orthogonalEdgeStyle;rounded=1;orthogonalLoop=1;jettySize=auto;html=1;exitX=1;exitY=0.5;exitDx=0;exitDy=0;entryX=0;entryY=0.5;entryDx=0;entryDy=0;endArrow=none;endFill=0;" edge="1" parent="1" source="uHuHp3nA_jXWI_jN8eQP-47" target="uHuHp3nA_jXWI_jN8eQP-58">
          <mxGeometry relative="1" as="geometry" />
        </mxCell>
        <mxCell id="uHuHp3nA_jXWI_jN8eQP-47" value="ID AUTO" style="ellipse;whiteSpace=wrap;html=1;align=center;fontStyle=4;rounded=1;" vertex="1" parent="1">
          <mxGeometry x="70" y="350" width="100" height="40" as="geometry" />
        </mxCell>
        <mxCell id="uHuHp3nA_jXWI_jN8eQP-81" style="edgeStyle=orthogonalEdgeStyle;rounded=1;orthogonalLoop=1;jettySize=auto;html=1;exitX=0;exitY=0.5;exitDx=0;exitDy=0;entryX=1;entryY=0.5;entryDx=0;entryDy=0;endArrow=none;endFill=0;" edge="1" parent="1" source="uHuHp3nA_jXWI_jN8eQP-48" target="uHuHp3nA_jXWI_jN8eQP-2">
          <mxGeometry relative="1" as="geometry" />
        </mxCell>
        <mxCell id="uHuHp3nA_jXWI_jN8eQP-48" value="ID AUTO" style="ellipse;whiteSpace=wrap;html=1;align=center;fontStyle=4;rounded=1;" vertex="1" parent="1">
          <mxGeometry x="660" y="570" width="100" height="40" as="geometry" />
        </mxCell>
        <mxCell id="uHuHp3nA_jXWI_jN8eQP-55" style="rounded=1;orthogonalLoop=1;jettySize=auto;html=1;exitX=0;exitY=0;exitDx=0;exitDy=0;entryX=0.5;entryY=1;entryDx=0;entryDy=0;endArrow=none;endFill=0;strokeColor=default;" edge="1" parent="1" source="uHuHp3nA_jXWI_jN8eQP-54" target="uHuHp3nA_jXWI_jN8eQP-1">
          <mxGeometry relative="1" as="geometry" />
        </mxCell>
        <mxCell id="uHuHp3nA_jXWI_jN8eQP-56" style="rounded=1;orthogonalLoop=1;jettySize=auto;html=1;exitX=1;exitY=0;exitDx=0;exitDy=0;entryX=0.5;entryY=1;entryDx=0;entryDy=0;endArrow=none;endFill=0;" edge="1" parent="1" source="uHuHp3nA_jXWI_jN8eQP-54" target="uHuHp3nA_jXWI_jN8eQP-2">
          <mxGeometry relative="1" as="geometry" />
        </mxCell>
        <mxCell id="uHuHp3nA_jXWI_jN8eQP-54" value="COMPRA" style="shape=rhombus;perimeter=rhombusPerimeter;whiteSpace=wrap;html=1;align=center;rounded=1;" vertex="1" parent="1">
          <mxGeometry x="430" y="445" width="90" height="50" as="geometry" />
        </mxCell>
        <mxCell id="uHuHp3nA_jXWI_jN8eQP-57" value="COLOR" style="ellipse;shape=doubleEllipse;margin=3;whiteSpace=wrap;html=1;align=center;rounded=1;" vertex="1" parent="1">
          <mxGeometry x="220" y="480" width="100" height="40" as="geometry" />
        </mxCell>
        <mxCell id="uHuHp3nA_jXWI_jN8eQP-58" value="MARCA" style="shape=ext;margin=3;double=1;whiteSpace=wrap;html=1;align=center;rounded=1;" vertex="1" parent="1">
          <mxGeometry x="220" y="400" width="100" height="40" as="geometry" />
        </mxCell>
        <mxCell id="uHuHp3nA_jXWI_jN8eQP-62" style="edgeStyle=orthogonalEdgeStyle;rounded=1;orthogonalLoop=1;jettySize=auto;html=1;exitX=1;exitY=0.5;exitDx=0;exitDy=0;entryX=0.5;entryY=1;entryDx=0;entryDy=0;endArrow=none;endFill=0;" edge="1" parent="1" source="uHuHp3nA_jXWI_jN8eQP-61" target="uHuHp3nA_jXWI_jN8eQP-1">
          <mxGeometry relative="1" as="geometry" />
        </mxCell>
        <mxCell id="uHuHp3nA_jXWI_jN8eQP-61" value="ID CHASIS" style="ellipse;whiteSpace=wrap;html=1;align=center;fontStyle=4;rounded=1;" vertex="1" parent="1">
          <mxGeometry x="220" y="680" width="100" height="40" as="geometry" />
        </mxCell>
        <mxCell id="uHuHp3nA_jXWI_jN8eQP-69" style="rounded=1;orthogonalLoop=1;jettySize=auto;html=1;exitX=0;exitY=0.5;exitDx=0;exitDy=0;entryX=0.5;entryY=1;entryDx=0;entryDy=0;endArrow=none;endFill=0;edgeStyle=orthogonalEdgeStyle;" edge="1" parent="1" source="uHuHp3nA_jXWI_jN8eQP-65" target="uHuHp3nA_jXWI_jN8eQP-1">
          <mxGeometry relative="1" as="geometry" />
        </mxCell>
        <mxCell id="uHuHp3nA_jXWI_jN8eQP-71" style="edgeStyle=orthogonalEdgeStyle;rounded=1;orthogonalLoop=1;jettySize=auto;html=1;exitX=0.5;exitY=1;exitDx=0;exitDy=0;entryX=0;entryY=0.5;entryDx=0;entryDy=0;endArrow=none;endFill=0;" edge="1" parent="1" source="uHuHp3nA_jXWI_jN8eQP-65" target="uHuHp3nA_jXWI_jN8eQP-67">
          <mxGeometry relative="1" as="geometry" />
        </mxCell>
        <mxCell id="uHuHp3nA_jXWI_jN8eQP-65" value="ESTADO" style="shape=ext;margin=3;double=1;whiteSpace=wrap;html=1;align=center;rounded=1;" vertex="1" parent="1">
          <mxGeometry x="440" y="520" width="100" height="40" as="geometry" />
        </mxCell>
        <mxCell id="uHuHp3nA_jXWI_jN8eQP-67" value="USADO" style="ellipse;shape=doubleEllipse;margin=3;whiteSpace=wrap;html=1;align=center;rounded=1;" vertex="1" parent="1">
          <mxGeometry x="520" y="590" width="100" height="40" as="geometry" />
        </mxCell>
        <mxCell id="uHuHp3nA_jXWI_jN8eQP-72" style="edgeStyle=orthogonalEdgeStyle;rounded=1;orthogonalLoop=1;jettySize=auto;html=1;exitX=0;exitY=0.5;exitDx=0;exitDy=0;entryX=0.5;entryY=1;entryDx=0;entryDy=0;endArrow=none;endFill=0;" edge="1" parent="1" source="uHuHp3nA_jXWI_jN8eQP-70" target="uHuHp3nA_jXWI_jN8eQP-65">
          <mxGeometry relative="1" as="geometry" />
        </mxCell>
        <mxCell id="uHuHp3nA_jXWI_jN8eQP-70" value="NUEVO" style="ellipse;whiteSpace=wrap;html=1;align=center;rounded=1;" vertex="1" parent="1">
          <mxGeometry x="520" y="640" width="100" height="40" as="geometry" />
        </mxCell>
        <mxCell id="uHuHp3nA_jXWI_jN8eQP-84" value="&lt;h1&gt;DIAGRAMA DE FLUJO&lt;br&gt;ENTIDADES&amp;nbsp;&lt;/h1&gt;&lt;h1&gt;&quot;AUTO&quot;&lt;/h1&gt;" style="text;html=1;align=center;verticalAlign=middle;resizable=0;points=[];autosize=1;strokeColor=none;fillColor=none;" vertex="1" parent="1">
          <mxGeometry x="285" y="30" width="280" height="150" as="geometry" />
        </mxCell>
        <mxCell id="uHuHp3nA_jXWI_jN8eQP-85" value="&lt;h2&gt;&lt;span style=&quot;font-weight: normal;&quot;&gt;&lt;i&gt;&lt;font style=&quot;font-size: 18px;&quot;&gt;Juan José Lizarazu Quiroga&lt;/font&gt;&lt;/i&gt;&lt;/span&gt;&lt;/h2&gt;" style="text;html=1;align=center;verticalAlign=middle;resizable=0;points=[];autosize=1;strokeColor=none;fillColor=none;" vertex="1" parent="1">
          <mxGeometry x="20" y="10" width="250" height="60" as="geometry" />
        </mxCell>
        <mxCell id="uHuHp3nA_jXWI_jN8eQP-87" style="edgeStyle=orthogonalEdgeStyle;rounded=0;orthogonalLoop=1;jettySize=auto;html=1;exitX=1;exitY=0.5;exitDx=0;exitDy=0;entryX=0;entryY=0.5;entryDx=0;entryDy=0;endArrow=none;endFill=0;" edge="1" parent="1" source="uHuHp3nA_jXWI_jN8eQP-86" target="uHuHp3nA_jXWI_jN8eQP-38">
          <mxGeometry relative="1" as="geometry" />
        </mxCell>
        <mxCell id="uHuHp3nA_jXWI_jN8eQP-86" value="ID AUTO" style="ellipse;whiteSpace=wrap;html=1;align=center;fontStyle=4;rounded=1;" vertex="1" parent="1">
          <mxGeometry x="240" y="320" width="100" height="40" as="geometry" />
        </mxCell>
      </root>
    </mxGraphModel>
  </diagram>
</mxfile>
